<?xml version="1.0" encoding="utf-8"?>
<!-- Generator: Adobe Illustrator 22.0.1, SVG Export Plug-In . SVG Version: 6.00 Build 0)  -->
<svg version="1.1" id="Layer_1" xmlns="http://www.w3.org/2000/svg" x="0px" y="0px"
     viewBox="0 0 93.4 134.2" style="enable-background:new 0 0 93.4 134.2;" xml:space="preserve">
<style type="text/css">
	.st0{fill:#020203;}
</style>
<path class="st0" d="M46.7,0C20.9,0,0,30,0,67.1s20.9,67.1,46.7,67.1c0.1,0,0.2,0,0.2,0c4,0,7.5-3,8.2-6.9c0.2-1.3,0.4-2.6,0.5-3.9
	c0.3-3.2,0.3-6.4-0.1-9.6c-0.1-1.6-0.5-3.2-0.8-4.7l-0.6-2.3l-0.3-1.2l-0.4-1.1c-2-6.1-5-12-8.7-17.4c-3.8-5.7-7-11.8-9.1-18.4
	l-0.4-1.2L35,66.1l-0.6-2.5c-0.3-1.7-0.7-3.4-0.8-5.1c-0.4-3.4-0.5-6.9-0.1-10.3c0.6-6.9,2.8-13.6,6.2-19.7c0.5-0.9,1-1.7,1.5-2.6
	c-0.7-2.9,0.5-6.9,3.5-10.2c4.2-4.7,10.3-6.5,13.6-3.9c3.3,2.6,2.6,8.5-1.6,13.3c-2.9,3.3-6.7,5.1-9.8,5.1c-0.3,0.5-0.7,1-1,1.5
	c-3.3,5.3-5.5,11.2-6.4,17.3c-0.5,3-0.6,6.2-0.4,9.3c0,1.6,0.3,3.1,0.5,4.7l0.5,2.3l0.2,1.2l0.3,1.1c1.6,6.1,4.3,12.1,7.7,17.7
	c3.6,5.8,6.4,12.1,8.1,18.6l0.3,1.2l0.3,1.2l0.5,2.5c0.2,1.7,0.5,3.3,0.6,5c0.3,3.3,0.1,6.7-0.4,10c-0.2,1.4-0.5,2.9-0.8,4.3
	c-0.6,2.3,1.8,4.2,4,3.2c18.9-8.6,32.7-34,32.7-64C93.4,30,72.5,0,46.7,0z"/>
</svg>
